<?xml version="1.0" standalone="no"?>
<!DOCTYPE svg PUBLIC "-//W3C//DTD SVG 1.1//EN" "http://www.w3.org/Graphics/SVG/1.1/DTD/svg11.dtd" >
<svg xmlns="http://www.w3.org/2000/svg" xmlns:xlink="http://www.w3.org/1999/xlink" version="1.1">
<metadata>
Created by FontForge 20160407 at Mon Aug 22 06:31:28 2016
 By Jimmy Wärting
Oliver James
</metadata>
<defs>
<font id="Metrica-Regular" horiz-adv-x="600" >
  <font-face 
    font-family="Metrica"
    font-weight="400"
    font-stretch="normal"
    units-per-em="1000"
    panose-1="0 0 5 0 0 0 0 0 0 0"
    ascent="800"
    descent="-200"
    cap-height="770"
    bbox="0 -1 813 773.09"
    underline-thickness="50"
    underline-position="-100"
    unicode-range="U+0020-007A"
  />
<missing-glyph horiz-adv-x="500" 
d="M500 700v-700h-500v700h500zM80 650l170 -255l170 255h-340zM220 350l-170 255v-510zM450 605l-170 -255l170 -255v510zM250 305l-170 -255h340z" />
    <glyph glyph-name=".notdef" horiz-adv-x="500" 
d="M500 700v-700h-500v700h500zM80 650l170 -255l170 255h-340zM220 350l-170 255v-510zM450 605l-170 -255l170 -255v510zM250 305l-170 -255h340z" />
    <glyph glyph-name="A" unicode="A" horiz-adv-x="837" 
d="M500 761l302 -747c1 -2 1 -4 0 -7l-1 -2c-1 -2 -4 -4 -6 -5h-2c-2 0 -4 0 -5 1l-373 198l-355 -198c-1 -1 -3 -1 -5 -1h-2c-2 1 -5 3 -6 5l-1 2c-1 3 -1 5 0 7l222 553c2 5 8 7 13 5s8 -8 6 -13l-89 -222l91 -49l191 475l1 1c0 1 1 2 2 3c2 2 4 3 7 3h2c0 -1 1 -1 2 -1
c3 -1 5 -4 6 -8zM644 350l-155 382l-183 -453l108 -57zM652 331l-216 -120l337 -179zM394 210l-104 55c-1 0 -2 1 -2 2l-97 51l-115 -285z" />
    <glyph glyph-name="B" unicode="B" horiz-adv-x="689" 
d="M467 385l182 -171c2 -2 3 -5 3 -8c0 -46 -21 -96 -57 -133c-31 -33 -90 -73 -188 -73h-236c-6 0 -10 5 -10 10v87l-100 -94l-4 -3h-3c-2 0 -4 0 -5 1c-3 2 -5 6 -5 9v749c0 5 2 8 6 9c3 2 8 1 11 -1l100 -94v86c0 6 4 10 10 10h235c99 0 157 -39 188 -72
c36 -37 57 -86 57 -132c1 -3 0 -6 -3 -9zM452 399l179 168c0 17 -4 37 -12 55c-9 23 -22 43 -39 61c-29 30 -82 66 -174 66h-225v-95zM64 736v-702l97 91v520zM437 385l-256 241v-482zM581 87c17 17 30 38 39 60c7 18 11 38 12 55l-180 169l-271 -255v-96h226
c91 0 145 36 174 67z" />
    <glyph glyph-name="C" unicode="C" horiz-adv-x="688" 
d="M533 385l116 -172c3 -2 4 -4 4 -7c0 -46 -22 -96 -57 -134c-32 -33 -90 -72 -188 -72h-2c-49 0 -88 10 -119 24l-4 -6l-1 -1c-2 -3 -5 -4 -8 -4c-92 0 -147 37 -176 68c-34 35 -54 81 -54 125v357c0 43 20 90 54 125c29 31 84 68 176 68l4 -1c1 0 3 -2 4 -3l5 -7
c31 14 70 24 119 24h1c98 0 156 -40 188 -73c36 -37 57 -87 57 -133c0 -2 -1 -4 -2 -6zM406 749c-44 0 -80 -9 -108 -21l222 -326l112 164c-1 18 -5 37 -12 56c-9 22 -23 43 -39 61c-29 30 -83 66 -175 66zM112 95c26 -28 75 -61 157 -62c-22 12 -38 26 -51 39
c-36 38 -57 88 -57 134v357c0 46 21 96 57 133c13 13 29 27 51 40c-82 -1 -131 -35 -157 -62c-35 -37 -48 -81 -48 -111v-357c0 -30 13 -74 48 -111zM181 563v-357c0 -19 4 -39 12 -59c9 -23 23 -43 40 -61c11 -12 27 -25 47 -36l229 335l-229 334c-20 -11 -36 -24 -47 -36
c-17 -18 -31 -39 -40 -61c-8 -20 -12 -40 -12 -59zM581 86c17 18 30 38 40 61c7 19 11 38 12 56l-112 164l-223 -326c28 -12 64 -21 108 -21h1h1c91 0 144 36 173 66z" />
    <glyph glyph-name="D" unicode="D" horiz-adv-x="689" 
d="M640 393c6 0 10 -5 10 -10v-177c0 -47 -21 -96 -57 -134c-31 -33 -90 -72 -188 -72h-353c-2 0 -4 0 -6 1c-2 2 -4 5 -4 9v749c0 5 4 10 10 10c5 0 10 -5 10 -10v-726l97 91v635c0 5 4 10 10 10h235c99 0 157 -40 188 -73c35 -36 56 -85 57 -131c0 -2 0 -4 -1 -6
c0 -2 -2 -4 -4 -5l-467 -439c0 -2 -2 -3 -3 -4l-97 -91h328c91 0 145 36 174 66c17 18 30 38 39 61c8 20 12 40 12 59v177c0 5 5 10 10 10zM179 143l450 423c0 18 -4 37 -12 56c-9 22 -22 43 -39 60c-29 31 -82 67 -174 67h-225v-606z" />
    <glyph glyph-name="E" unicode="E" horiz-adv-x="619" 
d="M76 20h494c6 0 10 -5 10 -10c0 -6 -4 -10 -10 -10h-518c-5 0 -8 2 -9 6l-1 4v748c0 5 4 10 10 10h518c6 0 10 -5 10 -10c0 -6 -4 -10 -10 -10h-494l354 -354c3 -2 4 -5 4 -8c0 -4 -2 -7 -5 -9zM62 34l97 98v505l-97 97v-700zM179 396h221l-221 221v-221zM179 376v-224
l221 224h-221z" />
    <glyph glyph-name="F" unicode="F" horiz-adv-x="619" 
d="M49 768h521c5 0 10 -5 10 -10c0 -6 -5 -10 -10 -10h-495l356 -355c3 -4 3 -10 0 -14c-2 -2 -5 -3 -8 -3h-245v-246c0 -4 -2 -7 -5 -9l-114 -118c-2 -2 -5 -3 -8 -3s-6 1 -8 4c-1 1 -2 3 -2 6v748c0 2 1 5 3 7c1 1 3 2 5 3zM61 34l97 100v503l-97 97v-700zM178 617v-221
h221z" />
    <glyph glyph-name="G" unicode="G" horiz-adv-x="688" 
d="M646 213c2 -2 3 -4 3 -7c0 -46 -22 -96 -57 -133c-32 -33 -90 -73 -188 -73h-2c-49 0 -89 10 -120 24l-2 -4c-2 -3 -6 -7 -10 -7c-92 0 -147 37 -176 68c-34 35 -54 82 -54 125v358c0 43 20 90 54 125c29 30 82 66 172 67c5 2 9 0 12 -4l1 -1l3 -6c31 14 71 24 121 24
c98 0 156 -39 188 -72c36 -37 57 -87 57 -133c0 -6 -5 -10 -10 -10c-6 0 -10 4 -10 10c0 18 -4 39 -12 59c-9 22 -23 42 -40 60c-28 30 -82 66 -173 66h-1c-49 0 -87 -10 -118 -25c-25 -13 -43 -27 -56 -41c-17 -18 -30 -38 -39 -60c-8 -20 -12 -41 -12 -59v-178l465 -170
c2 -1 3 -2 4 -3zM108 675c-35 -37 -48 -82 -48 -111v-348h97v348c0 46 21 96 57 133c12 13 29 27 50 39c-81 -2 -130 -34 -156 -61zM583 216l-406 149v-149h406zM108 95c26 -27 74 -60 156 -61c-22 12 -38 26 -50 39c-34 34 -54 80 -57 123h-97c3 -29 16 -68 48 -101z
M577 87c17 17 30 38 39 60c6 16 11 33 12 49h-451c1 -16 5 -33 12 -49c9 -22 22 -43 39 -60c12 -14 30 -28 53 -40l3 -2c30 -14 68 -25 118 -25h1h1c91 0 144 36 173 67z" />
    <glyph glyph-name="H" unicode="H" horiz-adv-x="618" 
d="M570 770c5 0 10 -4 10 -10v-750c0 -6 -5 -10 -10 -10c-6 0 -10 4 -10 10v366h-128l-372 -371c-2 -3 -5 -5 -9 -5c-3 0 -6 1 -8 4c-1 1 -2 3 -2 6v749c0 6 5 10 10 10c6 0 10 -4 10 -10v-363h97v363c0 6 5 10 10 10c6 0 10 -4 10 -10v-363h382v364c0 6 4 10 10 10z
M158 131v245h-97v-342zM178 151l226 225h-226v-225z" />
    <glyph glyph-name="I" unicode="I" horiz-adv-x="366" 
d="M152 20h167c6 0 10 -4 10 -10c0 -5 -4 -10 -10 -10h-266c-5 0 -10 5 -10 10c0 6 5 10 10 10h65v730h-65c-5 0 -10 4 -10 10c0 5 5 10 10 10h266c6 0 10 -5 10 -10c0 -6 -4 -10 -10 -10h-64v-623c0 -2 -1 -5 -3 -7zM235 131v619h-97v-716z" />
    <glyph glyph-name="J" unicode="J" horiz-adv-x="572" 
d="M531 759c2 -2 3 -5 3 -8v-546c0 -46 -22 -95 -57 -133c-32 -33 -90 -72 -188 -72h-2c-21 0 -40 2 -59 5c-1 0 -3 0 -4 1c-61 12 -101 41 -125 66c-36 38 -57 87 -57 134c0 5 4 10 10 10c5 0 10 -5 10 -10c0 -19 4 -40 12 -59c9 -23 22 -43 39 -61c22 -23 59 -49 115 -61
c68 14 107 48 129 75c24 32 39 71 39 106v113l-152 152c-4 4 -4 11 0 15l273 273c3 3 10 3 14 0zM514 230v497l-249 -248zM462 86c17 18 30 38 39 61c7 17 12 36 13 54l-98 98v-93c0 -40 -16 -83 -44 -118c-17 -22 -46 -50 -91 -68h6h1h1c91 0 144 36 173 66z" />
    <glyph glyph-name="K" unicode="K" horiz-adv-x="619" 
d="M322 384l255 -369c4 -4 2 -11 -2 -14c-2 -1 -4 -2 -6 -2c-3 0 -6 2 -8 5l-251 363l-251 -363c-2 -2 -5 -4 -8 -4c-6 0 -10 5 -10 10v749c0 6 4 10 10 10s10 -4 10 -10v-364h97v364c0 6 4 10 10 10c5 0 10 -4 10 -10v-364h127l256 370c3 4 9 5 14 2c4 -3 6 -9 2 -14z
M291 375h-230v-333z" />
    <glyph glyph-name="L" unicode="L" horiz-adv-x="619" 
d="M149 20h420c5 0 10 -4 10 -10s-5 -10 -10 -10h-518c-6 0 -10 4 -10 10s4 10 10 10h64v730h-64c-6 0 -10 4 -10 10c0 5 4 10 10 10h265c6 0 10 -5 10 -10c0 -6 -4 -10 -10 -10h-63v-622c0 -2 -1 -4 -2 -5l-1 -3zM233 132v618h-98v-716z" />
    <glyph glyph-name="M" unicode="M" horiz-adv-x="852" 
d="M810 767c2 -2 3 -4 3 -7v-750c0 -5 -5 -10 -10 -10c-6 0 -10 5 -10 10v363h-97v-363c0 -5 -5 -10 -10 -10c-6 0 -10 5 -10 10v363h-498v-363c0 -5 -4 -10 -10 -10c-5 0 -10 5 -10 10v363h-96v-363c0 -5 -5 -10 -10 -10c-6 0 -10 5 -10 10v750c0 5 4 10 10 10
c2 0 5 -1 7 -3l368 -370l368 369c2 2 4 4 8 4c2 0 5 -1 7 -3zM62 736v-343h96v246zM696 639v-246h97v343zM178 619v-226h225zM451 393h225v226z" />
    <glyph glyph-name="N" unicode="N" horiz-adv-x="665" 
d="M627 196v-183c1 -3 0 -7 -2 -10c-2 -2 -5 -3 -8 -3h-3c-1 1 -3 2 -4 3l-183 184h-247v-177c0 -5 -5 -10 -10 -10c-6 0 -10 5 -10 10v632l-97 97v-729c0 -5 -4 -10 -10 -10c-5 0 -10 5 -10 10v753c0 6 5 10 10 10c4 0 7 -2 9 -5l430 -429v424c0 6 4 10 10 10
c5 0 10 -4 10 -10v-444l95 -95v539c0 6 5 10 10 10c6 0 10 -4 10 -10v-562v-5zM180 622v-415h415zM607 187h-152l152 -151v151z" />
    <glyph glyph-name="O" unicode="O" horiz-adv-x="689" 
d="M593 697c35 -37 57 -87 57 -133v-358c0 -46 -22 -96 -57 -133c-32 -33 -90 -73 -189 -73h-1c-49 0 -89 10 -120 24l-3 -4c-1 -4 -5 -7 -9 -7c-92 0 -147 37 -176 68c-34 35 -54 82 -54 125v358c0 43 20 90 54 125c29 31 82 66 172 67c4 2 9 0 12 -4l1 -1l4 -6
c31 14 70 24 121 24c98 0 156 -39 188 -72zM295 728l222 -325l113 166c-1 17 -6 36 -13 54c-9 22 -22 42 -39 60c-29 30 -82 66 -173 66h-1zM109 95c26 -27 75 -60 156 -61c-21 12 -38 26 -50 39c-36 37 -57 87 -57 133v358c0 46 21 96 57 133c12 13 29 27 50 39
c-81 -2 -130 -34 -156 -61c-35 -37 -48 -82 -48 -111v-358c0 -29 13 -74 48 -111zM178 564v-358c0 -18 4 -39 12 -59c9 -22 22 -42 39 -60c12 -12 27 -25 48 -37l228 335l-228 334c-21 -11 -36 -24 -48 -36c-17 -18 -30 -38 -39 -60c-8 -20 -12 -41 -12 -59zM529 385
l101 -147v295zM578 87c17 18 30 38 39 60c8 19 12 38 13 56l-113 165l-222 -327c28 -12 64 -21 109 -21c92 0 145 37 174 67z" />
    <glyph glyph-name="P" unicode="P" horiz-adv-x="618" 
d="M582 568c1 -2 1 -3 1 -5c0 -46 -22 -96 -57 -133c-32 -33 -90 -73 -188 -73h-157v-235c0 -2 0 -4 -1 -6c0 -2 -2 -4 -4 -5l-112 -105c-1 -4 -5 -6 -9 -6c-3 0 -6 1 -8 3c-3 3 -3 6 -2 9v745c-1 3 0 6 2 9c2 2 5 3 8 3h3c1 -1 3 -2 4 -3l372 -373c36 13 60 33 77 50
c17 18 30 39 39 61c8 19 12 37 13 55c-1 1 -1 3 -1 4c0 19 -4 39 -12 59c-9 22 -22 43 -39 61c-29 30 -82 66 -174 66h-166c-5 0 -10 4 -10 10c0 5 5 10 10 10h166c99 0 157 -40 189 -73c34 -36 55 -84 56 -128zM65 33l96 91v514l-96 96v-701zM181 377h157c28 0 53 4 75 9
l-232 232v-241z" />
    <glyph glyph-name="Q" unicode="Q" horiz-adv-x="689" 
d="M648 197v-2l-1 -4c-4 -41 -24 -85 -56 -118l-1 -1l55 -55c4 -4 4 -10 0 -14c-2 -2 -5 -3 -7 -3c-3 0 -6 1 -8 3l-55 55c-33 -29 -88 -58 -173 -58c-50 0 -89 10 -120 24l-4 -6c-2 -3 -5 -5 -9 -5c-92 0 -146 37 -176 68c-29 31 -48 71 -52 110l-1 4v2v366
c0 44 20 90 53 125c30 31 83 67 173 68c4 2 9 0 12 -4l4 -7c31 14 70 24 120 24h1c99 0 157 -39 189 -72c35 -38 57 -87 57 -134c0 -1 0 -3 -1 -4v-362zM628 563h1c0 19 -5 40 -13 59c-9 23 -22 43 -39 61c-29 30 -82 66 -175 66c-91 0 -145 -36 -174 -66
c-17 -18 -30 -38 -39 -61c-8 -19 -12 -40 -12 -59v-358h451v358zM108 675c-35 -37 -48 -82 -48 -112v-358h97v358c0 47 21 96 57 134c12 13 29 27 50 39c-82 -1 -130 -34 -156 -61zM108 95c26 -27 74 -61 156 -61c-21 12 -38 26 -50 39c-31 31 -50 72 -56 112h-96
c5 -27 19 -61 46 -90zM403 20c77 0 127 25 159 52l-114 113h-269c2 -12 5 -25 10 -38c9 -22 22 -43 39 -60c29 -31 83 -67 175 -67zM576 86l1 1c17 17 30 38 39 60c5 13 9 26 10 38h-149z" />
    <glyph glyph-name="R" unicode="R" horiz-adv-x="618" 
d="M395 362l186 -348c3 -4 1 -11 -4 -13c-1 -1 -3 -1 -4 -1c-4 0 -7 2 -9 5l-190 354c-11 -1 -23 -2 -36 -2h-157v-238c0 -3 -2 -6 -4 -8l-115 -108c-1 -1 -2 -2 -4 -3c-1 -1 -2 -1 -4 -1h-3c-1 1 -3 2 -4 3l-1 1c-1 2 -2 4 -2 6v749c0 6 5 10 10 10h114c2 1 4 1 6 0h163
c99 0 157 -39 188 -72c35 -37 56 -84 57 -129c1 -2 1 -3 1 -5c0 -46 -22 -96 -57 -133c-25 -26 -67 -56 -131 -67zM64 32l97 91v625h-97v-716zM511 682c-29 30 -82 66 -174 66h-149l197 -368c63 10 102 39 126 63c17 18 30 38 39 60c7 19 12 38 13 55c-1 1 -1 3 -1 4
c0 19 -4 40 -12 59c-9 23 -22 43 -39 61zM181 377h157c9 0 18 0 26 1l-183 341v-342z" />
    <glyph glyph-name="S" unicode="S" horiz-adv-x="574" 
d="M530 215l4 -3c1 -2 1 -5 1 -7c0 -37 -15 -79 -41 -114c-21 -27 -47 -49 -79 -64c-36 -18 -78 -27 -127 -27c-98 0 -156 40 -188 73c-35 37 -57 87 -57 133c0 6 5 10 10 10c6 0 10 -4 10 -10c0 -19 5 -39 13 -59c9 -22 22 -43 39 -60c29 -31 82 -67 173 -67h2
c44 0 83 8 116 25c26 13 48 29 66 50l-425 322l-1 1c-2 2 -3 4 -3 7c0 35 13 73 36 106l-32 24l-2 2c-1 2 -2 4 -2 6c0 47 22 96 57 134c32 33 90 72 188 72h2c99 0 157 -39 188 -72c36 -38 57 -87 57 -134c0 -5 -4 -10 -10 -10c-5 0 -10 5 -10 10c0 19 -4 39 -12 59
c-9 23 -22 43 -39 61c-29 30 -83 66 -176 66c-91 0 -144 -36 -173 -66l-8 -9l422 -320c4 -1 7 -5 8 -8v-3c0 -36 -13 -74 -36 -107zM517 339l-422 319c-8 -11 -14 -23 -19 -36c-7 -18 -12 -37 -13 -54l32 -25l4 -1c1 -1 2 -2 2 -3l384 -291c19 28 31 61 32 91zM515 201
l-421 318c-19 -28 -30 -60 -31 -89l421 -319c18 28 30 60 31 90z" />
    <glyph glyph-name="T" unicode="T" horiz-adv-x="689" 
d="M55 770h589c5 0 10 -5 10 -10c0 -6 -5 -10 -10 -10h-343v-98h108c5 0 10 -4 10 -10v-514c0 -4 -2 -6 -4 -8l-117 -117l-4 -3h-3c-2 0 -3 0 -4 1c-4 2 -6 5 -6 9v622h-108c-4 0 -7 2 -9 5l-114 114c-3 2 -5 5 -5 9c0 5 4 10 10 10zM177 652h104v98h-202zM399 133v499h-98
v-598z" />
    <glyph glyph-name="U" unicode="U" horiz-adv-x="688" 
d="M649 755v-201c1 -2 1 -5 0 -7v-341c0 -46 -21 -96 -57 -133c-31 -33 -90 -73 -189 -73c-50 0 -90 10 -121 25l-2 -5c-1 -2 -3 -5 -5 -6c-1 -1 -3 -1 -5 -1c-92 0 -146 37 -176 68c-33 35 -53 82 -53 125v552v5c2 5 8 7 13 6l492 -175l84 168c3 5 9 7 14 4
c5 -2 7 -6 5 -11zM109 95c26 -27 74 -60 155 -62v1c-21 12 -37 26 -49 39c-36 37 -57 87 -57 133v505l-97 34v-539c0 -29 12 -74 48 -111zM629 715l-64 -127l64 -23v150zM178 704v-498c0 -19 4 -39 12 -59c9 -22 22 -43 39 -61c11 -11 25 -24 44 -34l264 524zM617 147
c8 20 12 40 12 59v337l-73 27l-265 -528c29 -13 65 -22 113 -22c91 0 145 36 174 66c17 18 30 39 39 61z" />
    <glyph glyph-name="V" unicode="V" horiz-adv-x="838" 
d="M796 769c5 -2 8 -8 6 -13l-301 -750c-1 -3 -5 -6 -9 -6c-1 0 -3 0 -4 1c-5 2 -8 8 -5 13l167 419l-91 49l-191 -473c0 -3 -2 -6 -5 -8h-1c-1 -1 -3 -1 -4 -1h-3l-2 2l-2 1c-1 1 -2 2 -2 3l-303 750c-1 2 -1 4 0 7l1 2c2 4 8 6 13 4l1 -1l497 -263c1 0 2 -1 2 -1l98 -52
l125 312c2 5 8 7 13 5zM358 36l183 455l-466 247z" />
    <glyph glyph-name="W" unicode="W" horiz-adv-x="852" 
d="M802 769c6 0 10 -4 10 -10v-749c0 -6 -4 -10 -10 -10c-3 0 -6 1 -8 4l-367 368l-367 -367c-2 -3 -5 -5 -9 -5c-5 0 -10 4 -10 10v749c0 6 5 10 10 10c6 0 10 -4 10 -10v-363h97v363c0 6 4 10 10 10c5 0 10 -4 10 -10v-363h497v363c0 6 5 10 10 10c6 0 10 -4 10 -10v-363
h97v363c0 6 5 10 10 10zM158 131v245h-97v-342zM403 376h-225v-225zM675 151v225h-224zM792 34v342h-97v-245z" />
    <glyph glyph-name="X" unicode="X" horiz-adv-x="786" 
d="M538 386l205 -368c3 -3 4 -7 3 -11c-2 -4 -6 -7 -10 -7c-2 0 -4 1 -6 2l-336 136l-338 -136c-2 -1 -3 -2 -5 -2c-3 0 -5 1 -6 2s-2 3 -3 5c-2 4 -1 9 2 11l205 368l-206 371c-2 2 -3 6 -1 10l1 3l3 2c3 1 7 1 11 -1l337 -135l335 135c3 2 8 3 12 1l1 -1c2 -1 3 -3 4 -4
v-7l-1 -2zM74 744l188 -336l117 211zM715 744l-314 -128l-327 -586l313 127zM714 30l-188 336l-118 -212z" />
    <glyph glyph-name="Y" unicode="Y" horiz-adv-x="618" 
d="M80 765l184 -374c2 -2 2 -5 1 -8v-373c0 -5 -4 -10 -10 -10c-5 0 -10 5 -10 10v374l-183 372c-2 5 0 11 5 13c5 3 11 1 13 -4zM560 769c5 -2 7 -8 5 -13l-183 -372v-374c0 -5 -5 -10 -10 -10c-6 0 -10 5 -10 10v374l-183 372c-2 5 0 11 5 13c5 3 11 1 13 -4l175 -356
l175 356c2 5 8 7 13 4z" />
    <glyph glyph-name="Z" unicode="Z" horiz-adv-x="757" 
d="M566 136h113c5 0 10 -4 10 -10c0 -5 -5 -10 -10 -10h-373l-62 -96h435c5 0 10 -4 10 -10c0 -5 -5 -10 -10 -10h-622c-5 0 -10 5 -10 10c0 2 1 4 2 6l413 621h-369c-6 0 -10 4 -10 10s4 10 10 10h382l62 93h-444c-6 0 -10 4 -10 10c0 5 4 10 10 10h621c2 0 4 -1 6 -2
c5 -3 6 -9 3 -13l-157 -241v-378zM548 523l148 227h-135l-485 -730h144l327 502zM546 136v348l-227 -348h227z" />
    <glyph glyph-name="a" unicode="a" horiz-adv-x="534" 
 />
    <glyph glyph-name="b" unicode="b" horiz-adv-x="537" 
 />
    <glyph glyph-name="c" unicode="c" horiz-adv-x="546" 
 />
    <glyph glyph-name="d" unicode="d" horiz-adv-x="537" 
 />
    <glyph glyph-name="e" unicode="e" horiz-adv-x="534" 
 />
    <glyph glyph-name="f" unicode="f" horiz-adv-x="512" 
 />
    <glyph glyph-name="g" unicode="g" horiz-adv-x="538" 
 />
    <glyph glyph-name="h" unicode="h" horiz-adv-x="537" 
 />
    <glyph glyph-name="i" unicode="i" horiz-adv-x="188" 
 />
    <glyph glyph-name="j" unicode="j" horiz-adv-x="275" 
 />
    <glyph glyph-name="k" unicode="k" horiz-adv-x="442" 
 />
    <glyph glyph-name="l" unicode="l" horiz-adv-x="337" 
 />
    <glyph glyph-name="m" unicode="m" horiz-adv-x="930" 
 />
    <glyph glyph-name="n" unicode="n" horiz-adv-x="538" 
 />
    <glyph glyph-name="o" unicode="o" horiz-adv-x="546" 
 />
    <glyph glyph-name="p" unicode="p" horiz-adv-x="533" 
 />
    <glyph glyph-name="q" unicode="q" horiz-adv-x="534" 
 />
    <glyph glyph-name="r" unicode="r" horiz-adv-x="533" 
 />
    <glyph glyph-name="s" unicode="s" horiz-adv-x="472" 
 />
    <glyph glyph-name="t" unicode="t" horiz-adv-x="377" 
 />
    <glyph glyph-name="u" unicode="u" horiz-adv-x="539" 
 />
    <glyph glyph-name="v" unicode="v" horiz-adv-x="562" 
 />
    <glyph glyph-name="w" unicode="w" horiz-adv-x="930" 
 />
    <glyph glyph-name="x" unicode="x" horiz-adv-x="537" 
 />
    <glyph glyph-name="y" unicode="y" horiz-adv-x="534" 
 />
    <glyph glyph-name="z" unicode="z" horiz-adv-x="552" 
 />
    <glyph glyph-name="zero" unicode="0" 
 />
    <glyph glyph-name="one" unicode="1" 
 />
    <glyph glyph-name="two" unicode="2" 
 />
    <glyph glyph-name="three" unicode="3" 
 />
    <glyph glyph-name="four" unicode="4" 
 />
    <glyph glyph-name="five" unicode="5" 
 />
    <glyph glyph-name="six" unicode="6" 
 />
    <glyph glyph-name="seven" unicode="7" 
 />
    <glyph glyph-name="eight" unicode="8" 
 />
    <glyph glyph-name="nine" unicode="9" 
 />
    <glyph glyph-name="space" unicode=" " 
 />
    </font>
</defs>
</svg>
